<svg version="1.1" id="Layer_1" xmlns="http://www.w3.org/2000/svg" xmlns:xlink="http://www.w3.org/1999/xlink" x="0px" y="0px"
	 width="51px" height="20px" viewBox="0 0 51 20" enable-background="new 0 0 51 20" xml:space="preserve">
<path d="M8.826,19.315c0.48,0.484,1.258,0.484,1.737,0c0.48-0.485,0.48-1.271,0-1.756L2.952,9.839l7.611-7.721
	c0.48-0.483,0.48-1.27,0-1.755c-0.48-0.484-1.258-0.484-1.737,0L0.35,8.961c-0.467,0.473-0.468,1.283,0,1.755L8.826,19.315z
	 M4.009,8.767H45.85c1.625,1.073,0,2.145,0,2.145H4.009V8.767z M4.009,10.912L2.952,9.839l1.057-1.072"/>
</svg>
