<svg width="33" height="33" viewBox="0 0 33 33" fill="none" xmlns="http://www.w3.org/2000/svg">
<g clip-path="url(#clip0)">
<path d="M32.6834 16.3417C32.6834 7.31547 25.368 0 16.3417 0C7.31547 0 0 7.31547 0 16.3417C0 25.368 7.31547 32.6834 16.3417 32.6834C16.4375 32.6834 16.5332 32.6834 16.629 32.6771V19.9612H13.1181V15.8693H16.629V12.8563C16.629 9.36457 18.7611 7.46229 21.8762 7.46229C23.3699 7.46229 24.653 7.57081 25.0233 7.62188V11.2732H22.8784C21.1868 11.2732 20.8548 12.0775 20.8548 13.2585V15.863H24.9084L24.3785 19.9548H20.8548V32.0515C27.6852 30.0917 32.6834 23.804 32.6834 16.3417Z" fill="white"/>
</g>
<defs>
<clipPath id="clip0">
<rect width="32.6834" height="32.6834" fill="white"/>
</clipPath>
</defs>
</svg>
