<svg width="34" height="33" viewBox="0 0 34 33" fill="none" xmlns="http://www.w3.org/2000/svg">
<g clip-path="url(#clip0)">
<path d="M20.2993 16.3418C20.2993 18.0693 18.8989 19.4697 17.1714 19.4697C15.4438 19.4697 14.0435 18.0693 14.0435 16.3418C14.0435 14.6142 15.4438 13.2139 17.1714 13.2139C18.8989 13.2139 20.2993 14.6142 20.2993 16.3418Z" fill="white"/>
<path d="M24.4867 10.8076C24.3363 10.4001 24.0964 10.0313 23.7847 9.72863C23.482 9.41694 23.1135 9.17706 22.7058 9.0267C22.3751 8.89828 21.8784 8.74543 20.9635 8.70378C19.9739 8.65865 19.6771 8.64893 17.1716 8.64893C14.6658 8.64893 14.3691 8.6584 13.3797 8.70353C12.4648 8.74543 11.9678 8.89828 11.6374 9.0267C11.2297 9.17706 10.8609 9.41694 10.5585 9.72863C10.2468 10.0313 10.0069 10.3999 9.85629 10.8076C9.72787 11.1382 9.57502 11.6352 9.53337 12.5501C9.48824 13.5395 9.47852 13.8363 9.47852 16.342C9.47852 18.8475 9.48824 19.1443 9.53337 20.134C9.57502 21.0488 9.72787 21.5456 9.85629 21.8762C10.0069 22.2839 10.2465 22.6525 10.5582 22.9552C10.8609 23.2669 11.2295 23.5067 11.6372 23.6571C11.9678 23.7858 12.4648 23.9386 13.3797 23.9803C14.3691 24.0254 14.6656 24.0349 17.1714 24.0349C19.6774 24.0349 19.9741 24.0254 20.9633 23.9803C21.8782 23.9386 22.3751 23.7858 22.7058 23.6571C23.5242 23.3414 24.171 22.6946 24.4867 21.8762C24.6151 21.5456 24.7679 21.0488 24.8098 20.134C24.855 19.1443 24.8644 18.8475 24.8644 16.342C24.8644 13.8363 24.855 13.5395 24.8098 12.5501C24.7682 11.6352 24.6153 11.1382 24.4867 10.8076ZM17.1716 21.1603C14.5102 21.1603 12.3528 19.0031 12.3528 16.3418C12.3528 13.6804 14.5102 11.5232 17.1716 11.5232C19.8327 11.5232 21.9901 13.6804 21.9901 16.3418C21.9901 19.0031 19.8327 21.1603 17.1716 21.1603ZM22.1806 12.4588C21.5588 12.4588 21.0546 11.9546 21.0546 11.3327C21.0546 10.7108 21.5588 10.2066 22.1806 10.2066C22.8025 10.2066 23.3067 10.7108 23.3067 11.3327C23.3065 11.9546 22.8025 12.4588 22.1806 12.4588Z" fill="white"/>
<path d="M17.1713 0C8.14741 0 0.82959 7.31782 0.82959 16.3417C0.82959 25.3656 8.14741 32.6834 17.1713 32.6834C26.1952 32.6834 33.513 25.3656 33.513 16.3417C33.513 7.31782 26.1952 0 17.1713 0ZM26.4984 20.2105C26.453 21.2094 26.2942 21.8914 26.0623 22.4883C25.5748 23.7488 24.5784 24.7452 23.3179 25.2327C22.7212 25.4646 22.039 25.6232 21.0403 25.6688C20.0396 25.7145 19.72 25.7254 17.1716 25.7254C14.6229 25.7254 14.3035 25.7145 13.3026 25.6688C12.3039 25.6232 11.6217 25.4646 11.025 25.2327C10.3986 24.9971 9.83155 24.6278 9.36276 24.1503C8.8855 23.6817 8.5162 23.1144 8.28056 22.4883C8.04866 21.8916 7.88982 21.2094 7.84444 20.2107C7.79831 19.2098 7.78759 18.8901 7.78759 16.3417C7.78759 13.7933 7.79831 13.4736 7.84419 12.473C7.88957 11.4741 8.04816 10.7921 8.28006 10.1951C8.5157 9.56899 8.88525 9.00171 9.36276 8.53317C9.8313 8.05566 10.3986 7.68636 11.0247 7.45072C11.6217 7.21882 12.3037 7.06023 13.3026 7.0146C14.3032 6.96897 14.6229 6.958 17.1713 6.958C19.7197 6.958 20.0394 6.96897 21.04 7.01485C22.039 7.06023 22.7209 7.21882 23.3179 7.45047C23.944 7.68611 24.5113 8.05566 24.9801 8.53317C25.4574 9.00196 25.8269 9.56899 26.0623 10.1951C26.2945 10.7921 26.453 11.4741 26.4987 12.473C26.5443 13.4736 26.555 13.7933 26.555 16.3417C26.555 18.8901 26.5443 19.2098 26.4984 20.2105Z" fill="white"/>
</g>
<defs>
<clipPath id="clip0">
<rect width="32.6834" height="32.6834" fill="white" transform="translate(0.82959)"/>
</clipPath>
</defs>
</svg>
