<svg width="17" height="17" viewBox="0 0 17 17" fill="none" xmlns="http://www.w3.org/2000/svg">
<path d="M11.6112 10.0878C13.6519 7.20618 12.9694 3.21602 10.0878 1.17585C7.20618 -0.864327 3.21602 -0.182319 1.17585 2.69976C-0.864327 5.58135 -0.182319 9.57103 2.69976 11.6112C4.75651 13.0674 7.47577 13.1795 9.64513 11.8983L14.3587 16.5837C14.8677 17.1194 15.7145 17.1409 16.2502 16.6319C16.786 16.1235 16.8074 15.2767 16.299 14.7409C16.2829 14.7239 16.2673 14.7083 16.2502 14.6922L11.6112 10.0878ZM6.38962 10.5246C4.11253 10.5251 2.26638 8.68037 2.26491 6.40327C2.26443 4.12618 4.10911 2.28003 6.3867 2.27905C8.66087 2.27808 10.506 4.11984 10.5104 6.39401C10.5143 8.6716 8.67062 10.5207 6.39255 10.5246H6.38962Z" fill="#F8BA2B"/>
</svg>
