<svg width="245" height="240" viewBox="0 0 245 240" fill="none" xmlns="http://www.w3.org/2000/svg">
<path d="M121.474 223H76.6556C61.5828 223 47.6799 214.293 40.3731 200.206L0.41304 123.19C-0.38176 121.659 -0.00311279 119.779 1.32216 118.68L5.43015 115.268C10.174 110.842 16.5324 108.586 22.9927 109.032C29.5887 109.518 35.6864 112.733 39.8265 117.908L44.5311 123.656L44.5882 39.9108C44.5954 29.714 52.5131 21.4189 62.1365 21.4189C65.9123 21.4189 69.1558 22.6968 72.3565 24.8638V18.4149C72.3565 8.21266 80.017 0 89.644 0H89.9672C98.7155 0 105.981 6.81281 107.235 15.7209C110.177 13.3854 113.817 12.1093 117.569 12.0967C127.196 12.0949 134.998 20.3757 134.998 30.5797V49.1433C137.741 46.971 141.424 45.8848 145.202 45.8848H145.509C155.111 45.8848 162.945 54.0687 162.968 64.2441C163.029 90.635 162.991 137.174 162.952 178.809C162.929 203.227 144.321 223 121.474 223ZM155.652 64.262C155.638 58.1231 151.087 53.2263 145.509 53.2263H145.202C139.61 53.2263 134.998 58.0407 134.998 64.1975V112.468C134.998 114.495 133.36 116.139 131.34 116.139C129.318 116.139 127.682 114.495 127.682 112.468V30.5797C127.682 24.4247 123.231 19.415 117.607 19.415C112.013 19.415 107.564 24.4247 107.564 30.5797V112.471C107.564 114.499 105.926 116.142 103.906 116.142C101.884 116.142 100.248 114.499 100.248 112.471V18.4202C100.248 12.2634 95.5613 7.34156 89.9672 7.34156H89.644C84.0517 7.34156 79.5008 12.3046 79.5008 18.4579V39.3874C79.5061 39.572 79.5079 39.7495 79.5079 39.9377C79.5079 40.0183 79.5079 40.0936 79.5008 40.1725C79.5008 49.4749 79.5044 59.5498 79.5062 69.1444C79.5115 91.3967 79.5151 110.611 79.5062 112.486C79.499 114.513 77.8558 116.151 75.8358 116.144C73.8157 116.137 72.1832 114.488 72.1904 112.461C72.1975 110.598 72.1939 91.3878 72.1904 69.1444C72.1904 59.3132 72.1868 48.9784 72.185 39.486C71.9725 33.5335 67.5073 28.764 62.0454 28.764C56.4585 28.764 51.9076 33.7683 51.904 39.9198L51.8379 133.905C51.8362 135.455 50.8663 136.837 49.4124 137.359C47.9586 137.882 46.335 137.43 45.3545 136.233L34.1718 122.573C31.3016 118.963 27.0685 116.714 22.4801 116.361C17.9917 116.063 13.5818 117.651 10.3079 120.745C10.2615 120.788 10.2151 120.829 10.1668 120.869L8.26466 122.451L46.8619 196.817C52.9042 208.466 64.3209 215.658 76.6556 215.658H121.474C140.292 215.658 155.617 199.176 155.636 178.802C155.675 137.172 155.713 90.6404 155.652 64.262Z" fill="white"/>
<g clip-path="url(#clip0)">
<path d="M233.397 227.064H96.3938C87.3936 227.064 81.8936 217.064 86.8937 209.563L155.395 98.5608C159.895 91.0608 170.396 91.0608 174.896 98.5608L243.397 209.563C247.897 217.064 242.397 227.064 233.397 227.064Z" fill="#E24C4B"/>
<path d="M101.895 212.064L164.896 110.561L227.898 212.064H101.895Z" fill="white"/>
<path d="M171.899 195.563C171.899 199.563 168.899 202.563 164.899 202.563C160.898 202.563 157.898 199.563 157.898 195.563C157.898 191.563 160.898 188.563 164.899 188.563C168.899 188.063 171.899 191.563 171.899 195.563Z" fill="#3F4448"/>
<path d="M171.398 177.063L174.898 152.062C175.898 146.062 170.898 140.562 164.898 140.562C158.897 140.562 153.897 146.062 154.898 152.062L158.398 177.063C158.898 180.063 161.398 182.563 164.898 182.563C168.398 183.063 170.898 180.563 171.398 177.063Z" fill="#3F4448"/>
</g>
<defs>
<clipPath id="clip0">
<rect width="160" height="160" fill="white" transform="translate(85 80)"/>
</clipPath>
</defs>
</svg>
