<svg width="34" height="33" viewBox="0 0 34 33" fill="none" xmlns="http://www.w3.org/2000/svg">
<g clip-path="url(#clip0)">
<path d="M15.0562 19.4034L20.3719 16.3419L15.0562 13.2803V19.4034Z" fill="white"/>
<path d="M17.0917 0C8.06782 0 0.75 7.31782 0.75 16.3417C0.75 25.3656 8.06782 32.6834 17.0917 32.6834C26.1156 32.6834 33.4334 25.3656 33.4334 16.3417C33.4334 7.31782 26.1156 0 17.0917 0ZM27.3028 16.3584C27.3028 16.3584 27.3028 19.6726 26.8824 21.2707C26.6467 22.1455 25.957 22.8352 25.0823 23.0706C23.4842 23.4912 17.0917 23.4912 17.0917 23.4912C17.0917 23.4912 10.716 23.4912 9.10114 23.0539C8.22641 22.8185 7.53669 22.1285 7.30105 21.2538C6.88039 19.6726 6.88039 16.3417 6.88039 16.3417C6.88039 16.3417 6.88039 13.0278 7.30105 11.4297C7.53644 10.5549 8.24311 9.84827 9.10114 9.61288C10.6993 9.19222 17.0917 9.19222 17.0917 9.19222C17.0917 9.19222 23.4842 9.19222 25.0823 9.62958C25.957 9.86497 26.6467 10.5549 26.8824 11.4297C27.3198 13.0278 27.3028 16.3584 27.3028 16.3584Z" fill="white"/>
</g>
<defs>
<clipPath id="clip0">
<rect width="32.6834" height="32.6834" fill="white" transform="translate(0.75)"/>
</clipPath>
</defs>
</svg>
