<svg width="72" height="72" viewBox="0 0 72 72" fill="none" xmlns="http://www.w3.org/2000/svg">
<g clip-path="url(#clip0)">
<path d="M4.49913 4.8989C-1.15887 10.7759 -0.000867054 17.0189 -0.000867054 35.9849C-0.000867054 51.7349 -2.74887 67.5239 11.6331 71.2409C16.1241 72.3959 55.9161 72.3959 60.4011 71.2349C66.3891 69.6899 71.2611 64.8329 71.9271 56.3639C72.0201 55.1819 72.0201 16.8089 71.9241 15.6029C71.2161 6.5819 65.6631 1.3829 58.3461 0.329895C56.6691 0.0868951 56.3331 0.0148951 47.7291 -0.000104927C17.2101 0.0148951 10.5201 -1.34411 4.49913 4.8989Z" fill="url(#paint0_linear)"/>
<path d="M35.9934 9.41677C25.1004 9.41677 14.7564 8.44777 10.8054 18.5878C9.17344 22.7758 9.41044 28.2148 9.41044 36.0028C9.41044 42.8368 9.19144 49.2598 10.8054 53.4148C14.7474 63.5608 25.1754 62.5888 35.9874 62.5888C46.4184 62.5888 57.1735 63.6748 61.1725 53.4148C62.8075 49.1848 62.5675 43.8268 62.5675 36.0028C62.5675 25.6168 63.1404 18.9118 58.1035 13.8778C53.0034 8.77777 46.1064 9.41677 35.9814 9.41677H35.9934ZM33.6114 14.2078C56.3334 14.1718 59.2254 11.6458 57.6294 46.7368C57.0624 59.1478 47.6124 57.7858 35.9964 57.7858C14.8164 57.7858 14.2074 57.1798 14.2074 35.9908C14.2074 14.5558 15.8874 14.2198 33.6114 14.2018V14.2078ZM50.1834 18.6208C48.4224 18.6208 46.9944 20.0488 46.9944 21.8098C46.9944 23.5708 48.4224 24.9988 50.1834 24.9988C51.9444 24.9988 53.3724 23.5708 53.3724 21.8098C53.3724 20.0488 51.9444 18.6208 50.1834 18.6208ZM35.9934 22.3498C28.4544 22.3498 22.3434 28.4638 22.3434 36.0028C22.3434 43.5418 28.4544 49.6528 35.9934 49.6528C43.5324 49.6528 49.6404 43.5418 49.6404 36.0028C49.6404 28.4638 43.5324 22.3498 35.9934 22.3498ZM35.9934 27.1408C47.7084 27.1408 47.7234 44.8648 35.9934 44.8648C24.2814 44.8648 24.2634 27.1408 35.9934 27.1408Z" fill="white"/>
</g>
<defs>
<linearGradient id="paint0_linear" x1="4.63719" y1="67.4012" x2="71.5536" y2="9.48583" gradientUnits="userSpaceOnUse">
<stop stop-color="#FFDD55"/>
<stop offset="0.5" stop-color="#FF543E"/>
<stop offset="1" stop-color="#C837AB"/>
</linearGradient>
<clipPath id="clip0">
<rect width="72" height="72" fill="white"/>
</clipPath>
</defs>
</svg>
