<svg width="72" height="72" viewBox="0 0 72 72" fill="none" xmlns="http://www.w3.org/2000/svg">
<path d="M57.2344 0H14.7656C6.62386 0 0 6.62386 0 14.7656V57.2344C0 65.3761 6.62386 72 14.7656 72H57.2344C65.3761 72 72 65.3761 72 57.2344V14.7656C72 6.62386 65.3761 0 57.2344 0ZM36 54.2812C33.38 54.2812 30.859 53.9331 28.5 53.2917L19.9688 57.6562L21.231 50.0759C15.667 46.4711 12.0938 40.8762 12.0938 34.5938C12.0938 23.7206 22.797 14.9062 36 14.9062C49.203 14.9062 59.9062 23.7206 59.9062 34.5938C59.9062 45.4669 49.203 54.2812 36 54.2812Z" fill="#F8BA2B"/>
</svg>
