<svg width="72" height="72" viewBox="0 0 72 72" fill="none" xmlns="http://www.w3.org/2000/svg">
<path d="M36 72C55.8823 72 72 55.8823 72 36C72 16.1177 55.8823 0 36 0C16.1177 0 0 16.1177 0 36C0 55.8823 16.1177 72 36 72Z" fill="#EF5261"/>
<path d="M32.5306 39.4313C37.4749 44.3756 42.3209 46.3815 44.0663 44.6361L46.4631 42.2398C47.256 41.447 48.3313 41.0016 49.4525 41.0016C50.5738 41.0016 51.6491 41.447 52.4419 42.2398L57.8228 47.6207C58.6156 48.4136 59.061 49.4889 59.061 50.6101C59.061 51.7313 58.6156 52.8067 57.8228 53.5995L53.6305 57.7918C49.6694 61.7529 37.9536 56.4655 26.725 45.2374C21.1135 39.6231 17.4331 34.335 15.0542 29.3625C12.6754 24.39 12.1934 20.3113 14.1728 18.3319L18.3651 14.1396C19.158 13.3468 20.2333 12.9014 21.3545 12.9014C22.4758 12.9014 23.5511 13.3468 24.3439 14.1396L29.7248 19.5188C30.5176 20.3116 30.963 21.3869 30.963 22.5082C30.963 23.6294 30.5176 24.7047 29.7248 25.4976L27.3263 27.9C25.5809 29.6438 27.5862 34.4891 32.5306 39.4313Z" fill="#EEEFEE"/>
</svg>
