<svg width="72" height="72" viewBox="0 0 72 72" fill="none" xmlns="http://www.w3.org/2000/svg">
<path d="M36 72C55.8823 72 72 55.8823 72 36C72 16.1177 55.8823 0 36 0C16.1177 0 0 16.1177 0 36C0 55.8823 16.1177 72 36 72Z" fill="#039BE5"/>
<path d="M16.4728 35.2201L51.1828 21.8371C52.7938 21.2551 54.2008 22.2301 53.6788 24.6661L53.6818 24.6631L47.7718 52.5061C47.3338 54.4801 46.1608 54.9601 44.5198 54.0301L35.5198 47.3971L31.1788 51.5791C30.6988 52.0591 30.2938 52.4641 29.3638 52.4641L30.0028 43.3051L46.6828 28.2361C47.4088 27.5971 46.5208 27.2371 45.5638 27.8731L24.9508 40.8511L16.0648 38.0791C14.1358 37.4671 14.0938 36.1501 16.4728 35.2201Z" fill="white"/>
</svg>
