<svg width="72" height="72" viewBox="0 0 72 72" fill="none" xmlns="http://www.w3.org/2000/svg">
<path d="M36.009 0H35.991C16.1415 0 0 16.146 0 36C0 43.875 2.538 51.174 6.8535 57.1005L2.367 70.4745L16.2045 66.051C21.897 69.822 28.6875 72 36.009 72C55.8585 72 72 55.8495 72 36C72 16.1505 55.8585 0 36.009 0Z" fill="#4CAF50"/>
<path d="M56.9565 50.8363C56.088 53.2889 52.641 55.3229 49.8915 55.9169C48.0105 56.3174 45.5535 56.6369 37.2825 53.2079C26.703 48.8249 19.89 38.0743 19.359 37.3768C18.8505 36.6793 15.084 31.6843 15.084 26.5183C15.084 21.3523 17.7075 18.8368 18.765 17.7568C19.6335 16.8703 21.069 16.4653 22.446 16.4653C22.8915 16.4653 23.292 16.4878 23.652 16.5058C24.7095 16.5508 25.2405 16.6138 25.938 18.2833C26.8065 20.3758 28.9215 25.5418 29.1735 26.0728C29.43 26.6038 29.6865 27.3238 29.3265 28.0213C28.989 28.7413 28.692 29.0608 28.161 29.6728C27.63 30.2848 27.126 30.7528 26.595 31.4098C26.109 31.9813 25.56 32.5933 26.172 33.6508C26.784 34.6858 28.899 38.1373 32.013 40.9093C36.0315 44.4868 39.2895 45.6298 40.455 46.1158C41.3235 46.4758 42.3585 46.3904 42.993 45.7153C43.7985 44.8468 44.793 43.4068 45.8055 41.9893C46.5255 40.9723 47.4345 40.8463 48.3885 41.2063C49.3605 41.5438 54.504 44.0863 55.5615 44.6128C56.619 45.1438 57.3165 45.3958 57.573 45.8413C57.825 46.2868 57.825 48.3793 56.9565 50.8363Z" fill="#FAFAFA"/>
</svg>
